#!OML:ASF X:\für Bonn\!DataBase\2005_08_11_Bastian_Final\c3d\Bastian.ASF
:FULLY-SPECIFIED
:DEGREES
91
root -2.6457 15.9546 5.16958 160.711 -34.4148 -170.823
lowerback 10.9878 -1.07108 4.33762
upperback 3.11112 -1.17424 3.76428
thorax -2.90475 -0.753506 1.64008
lowerneck 10.9819 -17.5103 -8.39654
upperneck -9.74068 -23.7421 14.7513
head -1.83682 -12.4072 6.26555
rclavicle -4.13224e-014 -1.23246e-014
rhumerus 16.296 -13.1203 -46.2254
rradius 106.084
rwrist -235.909
rhand -6.73464 -53.5019
rfingers 7.12502
rthumb 19.126 -442.581
lclavicle -4.13224e-014 -1.23246e-014
lhumerus 439.028 -10.4598 -306.65
lradius 78.1622
lwrist -142.587
lhand -11.3581 32.2916
lfingers 7.12502
lthumb 14.6755 61.7522
rfemur -20.0382 6.32934 12.3244
rtibia 50.4524
rfoot -20.6093 -5.46699
rtoes -21.277
lfemur 13.7263 -25.6866 -14.621
ltibia 42.9136
lfoot -32.4611 -17.9889
ltoes -0.891621
92
root -2.61183 15.9432 5.05207 160.728 -35.0308 -170.955
lowerback 10.8309 -1.01377 4.14873
upperback 2.99531 -1.10334 3.64854
thorax -2.93958 -0.708453 1.61307
lowerneck 11.1947 -17.5644 -8.54147
upperneck -9.65325 -23.8548 14.9853
head -1.78357 -12.4796 6.35287
rclavicle 1.13233e-013 -5.64548e-014
rhumerus 16.6842 -13.8437 -45.5347
rradius 105.984
rwrist -235.933
rhand -6.87555 -54.2895
rfingers 7.12502
rthumb 18.9905 -443.382
lclavicle 1.13233e-013 -5.64548e-014
lhumerus 439.16 -10.438 -306.317
lradius 78.528
lwrist -142.511
lhand -11.4703 33.1256
lfingers 7.12502
lthumb 14.5674 62.5941
rfemur -19.9072 5.3231 12.2414
rtibia 51.0574
rfoot -20.5457 -5.15128
rtoes -21.4633
lfemur 13.9992 -25.943 -14.5068
ltibia 42.6578
lfoot -32.411 -18.0935
ltoes -1.79106
93
root -2.57963 15.9345 4.93188 160.728 -35.6701 -171.088
lowerback 10.6658 -0.979766 3.96326
upperback 2.88129 -1.06481 3.54199
thorax -2.96772 -0.680067 1.59812
lowerneck 11.4741 -17.5922 -8.79276
upperneck -9.61867 -23.9459 15.2704
head -1.73932 -12.5433 6.47599
rclavicle -2.93207e-015 0
rhumerus 17.07 -14.5219 -44.8309
rradius 105.866
rwrist -235.887
rhand -6.99593 -55.082
rfingers 7.12502
rthumb 18.8747 -444.186
lclavicle -2.93207e-015 0
lhumerus 439.198 -10.3896 -306.009
lradius 78.9281
lwrist -142.44
lhand -11.5049 34.1376
lfingers 7.12502
lthumb 14.5341 63.6085
rfemur -19.706 4.28397 12.1355
rtibia 51.5933
rfoot -20.4537 -4.75238
rtoes -22.144
lfemur 14.3235 -26.1975 -14.4047
ltibia 42.341
lfoot -32.3111 -18.1157
ltoes -2.87745
94
root -2.54834 15.9286 4.80993 160.729 -36.3101 -171.252
lowerback 10.5117 -0.939136 3.80534
upperback 2.78777 -1.01625 3.39774
thorax -2.98146 -0.646668 1.52723
lowerneck 11.6439 -17.6429 -8.99449
upperneck -9.52728 -24.0628 15.5074
head -1.66965 -12.6156 6.56425
rclavicle -5.14852e-014 -2.0276e-014
rhumerus 17.3894 -15.2598 -44.1604
rradius 105.768
rwrist -235.845
rhand -7.15423 -55.8414
rfingers 7.12502
rthumb 18.7225 -444.96
lclavicle -5.14852e-014 -2.0276e-014
lhumerus 439.318 -10.3414 -305.829
lradius 79.3245
lwrist -142.389
lhand -11.3234 35.1764
lfingers 7.12502
lthumb 14.7089 64.6346
rfemur -19.4582 3.25422 11.9832
rtibia 52.0831
rfoot -20.5161 -4.35273
rtoes -23.8693
lfemur 14.6775 -26.4395 -14.3313
ltibia 41.9993
lfoot -32.1609 -18.1454
ltoes -3.89023
95
root -2.51724 15.9251 4.68699 160.73 -36.9581 -171.41
lowerback 10.3993 -0.916214 3.66304
upperback 2.67378 -0.986175 3.25459
thorax -3.03949 -0.623209 1.45281
lowerneck 11.7562 -17.6847 -9.24932
upperneck -9.37305 -24.1786 15.7429
head -1.5659 -12.6838 6.64622
rclavicle -1.25234e-014 -4.27387e-014
rhumerus 17.6942 -15.9558 -43.5235
rradius 105.65
rwrist -235.787
rhand -7.35439 -56.6197
rfingers 7.12502
rthumb 18.53 -445.757
lclavicle -1.25234e-014 -4.27387e-014
lhumerus 439.359 -10.2698 -305.704
lradius 79.7907
lwrist -142.438
lhand -11.0139 36.2452
lfingers 7.12502
lthumb 15.0071 65.6814
rfemur -19.1835 2.21156 11.8221
rtibia 52.506
rfoot -20.5954 -3.92366
rtoes -25.1225
lfemur 15.0308 -26.6494 -14.2254
ltibia 41.6014
lfoot -31.8889 -18.2042
ltoes -4.83041
96
root -2.48522 15.9176 4.56365 160.729 -37.6509 -171.569
lowerback 10.3277 -0.906514 3.5073
upperback 2.55427 -0.973492 3.11701
thorax -3.12534 -0.609056 1.39519
lowerneck 11.7805 -17.7584 -9.44571
upperneck -9.17903 -24.3282 15.8553
head -1.45524 -12.7593 6.67554
rclavicle 2.75814e-014 -1.27222e-014
rhumerus 17.9746 -16.6267 -42.8603
rradius 105.578
rwrist -235.662
rhand -7.44921 -57.3602
rfingers 7.12502
rthumb 18.4387 -446.506
lclavicle 2.75814e-014 -1.27222e-014
lhumerus 439.471 -10.1594 -305.667
lradius 80.224
lwrist -142.535
lhand -10.5639 37.2104
lfingers 7.12502
lthumb 15.4406 66.6137
rfemur -18.8902 1.14105 11.6294
rtibia 52.8873
rfoot -20.6614 -3.48734
rtoes -25.8075
lfemur 15.373 -26.8708 -14.102
ltibia 41.1793
lfoot -31.4608 -18.287
ltoes -5.65325
